<svg role="img" viewBox="0 0 24 24" xmlns="http://www.w3.org/2000/svg"><title>Instagram icon</title><path d="M 12 0 C 8.7 0 8.3 0 7.1 0.1 C 5.8 0.1 4.9 0.3 4.1 0.6 c -0.8 0.3 -1.5 0.7 -2.1 1.4 S 0.9 3.4 0.6 4.1 C 0.3 4.9 0.1 5.8 0.1 7.1 C 0 8.3 0 8.7 0 12 s 0 3.7 0.1 4.9 c 0.1 1.3 0.3 2.1 0.6 2.9 c 0.3 0.8 0.7 1.5 1.4 2.1 c 0.7 0.7 1.3 1.1 2.1 1.4 c 0.8 0.3 1.6 0.5 2.9 0.6 C 8.3 24 8.7 24 12 24 s 3.7 0 4.9 -0.1 c 1.3 -0.1 2.1 -0.3 2.9 -0.6 c 0.8 -0.3 1.5 -0.7 2.1 -1.4 c 0.7 -0.7 1.1 -1.3 1.4 -2.1 c 0.3 -0.8 0.5 -1.6 0.6 -2.9 c 0.1 -1.3 0.1 -1.7 0.1 -4.9 s 0 -3.7 -0.1 -4.9 c -0.1 -1.3 -0.3 -2.1 -0.6 -2.9 c -0.3 -0.8 -0.7 -1.5 -1.4 -2.1 C 21.3 1.3 20.7 0.9 19.9 0.6 c -0.8 -0.3 -1.6 -0.5 -2.9 -0.6 C 15.7 0 15.3 0 12 0 z m 0 2.2 c 3.2 0 3.6 0 4.8 0.1 c 1.2 0.1 1.8 0.2 2.2 0.4 c 0.6 0.2 1 0.5 1.4 0.9 c 0.4 0.4 0.7 0.8 0.9 1.4 c 0.2 0.4 0.4 1.1 0.4 2.2 c 0.1 1.3 0.1 1.6 0.1 4.8 s 0 3.6 -0.1 4.8 c -0.1 1.2 -0.3 1.8 -0.4 2.2 c -0.2 0.6 -0.5 1 -0.9 1.4 c -0.4 0.4 -0.8 0.7 -1.4 0.9 c -0.4 0.2 -1.1 0.4 -2.2 0.4 c -1.3 0.1 -1.6 0.1 -4.9 0.1 c -3.2 0 -3.6 0 -4.9 -0.1 c -1.2 -0.1 -1.8 -0.3 -2.2 -0.4 c -0.6 -0.2 -1 -0.5 -1.4 -0.9 c -0.4 -0.4 -0.7 -0.8 -0.9 -1.4 c -0.2 -0.4 -0.4 -1.1 -0.4 -2.2 c 0 -1.3 -0.1 -1.6 -0.1 -4.8 c 0 -3.2 0 -3.6 0.1 -4.9 c 0.1 -1.2 0.3 -1.8 0.4 -2.2 c 0.2 -0.6 0.5 -1 0.9 -1.4 c 0.4 -0.4 0.8 -0.7 1.4 -0.9 c 0.4 -0.2 1.1 -0.4 2.2 -0.4 c 1.3 0 1.6 -0.1 4.9 -0.1 l 0 0 z m 0 3.7 c -3.4 0 -6.2 2.8 -6.2 6.2 c 0 3.4 2.8 6.2 6.2 6.2 c 3.4 0 6.2 -2.8 6.2 -6.2 c 0 -3.4 -2.8 -6.2 -6.2 -6.2 z M 12 16 c -2.2 0 -4 -1.8 -4 -4 s 1.8 -4 4 -4 s 4 1.8 4 4 s -1.8 4 -4 4 z m 7.8 -10.4 c 0 0.8 -0.6 1.4 -1.4 1.4 c -0.8 0 -1.4 -0.6 -1.4 -1.4 c 0 -0.8 0.6 -1.4 1.4 -1.4 c 0.8 0 1.4 0.6 1.4 1.4 z"/>
    <ellipse cx="163.5" cy="117.5" rx="124.5" ry="53.5" fill="rgb(255, 255, 255)"/>
    <text x="-11.1" y="12.5" fill="#aa1a1a">
        temytext
    </text></svg>