<?xml version="1.0" encoding="UTF-8" standalone="no"?>
<svg
   role="img"
   viewBox="0 0 24 24"
   version="1.1"
   id="svg856"
   xmlns="http://www.w3.org/2000/svg"
   xmlns:svg="http://www.w3.org/2000/svg"
   xmlns:rdf="http://www.w3.org/1999/02/22-rdf-syntax-ns#"
   xmlns:cc="http://creativecommons.org/ns#"
   xmlns:dc="http://purl.org/dc/elements/1.1/">
  <defs
     id="defs860" />
  <title
     id="title848">Instagram icon</title>
  <path
     d="m 18.282366,4.0212994 c -1.448237,0 -1.623781,0 -2.150413,0.081645 -0.570517,0 -0.965491,0.1632899 -1.316579,0.4082248 -0.351087,0.2449347 -0.658289,0.5715144 -0.921605,1.143029 -0.263316,0.5715146 -0.482746,1.1430292 -0.614403,1.7145438 -0.131658,0.6531595 -0.21943,1.3879639 -0.21943,2.4493482 -0.04389,0.9797388 -0.04389,1.3063198 -0.04389,4.0006018 0,2.694283 0,3.020863 0.04389,4.000602 0.04389,1.061384 0.131658,1.714544 0.263316,2.367703 0.131657,0.65316 0.307201,1.224674 0.614403,1.714544 0.307202,0.571515 0.570518,0.898094 0.921605,1.143029 0.351088,0.244935 0.702176,0.408225 1.272693,0.48987 0.526632,0.08165 0.702176,0.08165 2.150413,0.08165 1.448236,0 1.62378,0 2.150412,-0.08165 0.570517,-0.08165 0.921605,-0.244935 1.272692,-0.48987 0.351089,-0.244935 0.65829,-0.571514 0.921606,-1.143029 0.307201,-0.571515 0.482746,-1.061384 0.614403,-1.714544 0.131658,-0.653159 0.21943,-1.306319 0.263316,-2.367703 0.04389,-1.061384 0.04389,-1.387964 0.04389,-4.000602 0,-2.612638 0,-3.020863 -0.04389,-4.0006018 C 23.460909,8.7567059 23.373137,8.1035464 23.241479,7.4503869 23.109822,6.7972274 22.934277,6.2257128 22.627076,5.7358432 22.36376,5.0826836 22.100444,4.7561039 21.749357,4.5111691 21.398269,4.2662342 21.047181,4.1029443 20.476664,4.0212994 c -0.570518,0 -0.746062,0 -2.194298,0 z m 0,1.7961887 c 1.40435,0 1.579894,0 2.106526,0.081645 0.526631,0.081645 0.789947,0.1632899 0.965491,0.3265798 0.263316,0.1632899 0.43886,0.4082247 0.614403,0.7348045 0.175544,0.3265797 0.307202,0.6531595 0.394974,1.1430291 0.08777,0.3265798 0.175544,0.8980944 0.175544,1.7961887 0.04389,1.0613838 0.04389,1.3063198 0.04389,3.9189568 0,2.612638 0,2.939218 -0.04389,3.918957 -0.04388,0.979739 -0.131658,1.469609 -0.175544,1.796189 -0.08777,0.48987 -0.21943,0.816449 -0.394974,1.143028 -0.175543,0.326581 -0.351087,0.571515 -0.614403,0.734805 -0.175544,0.163291 -0.482746,0.32658 -0.965491,0.32658 -0.570518,0.08165 -0.702176,0.08165 -2.150413,0.08165 -1.40435,0 -1.579894,0 -2.150412,-0.08165 -0.526631,-0.08164 -0.789947,-0.244934 -0.965491,-0.32658 -0.263316,-0.16329 -0.43886,-0.408224 -0.614403,-0.734805 -0.175544,-0.326579 -0.307202,-0.653158 -0.394974,-1.143028 -0.08777,-0.32658 -0.175544,-0.898095 -0.175544,-1.796189 0,-1.061384 -0.04389,-1.306319 -0.04389,-3.918957 0,-2.612638 0,-2.939218 0.04389,-4.0006018 0.04389,-0.9797393 0.131658,-1.469609 0.175544,-1.7961887 0.08777,-0.4898697 0.21943,-0.8164494 0.394974,-1.1430292 0.175543,-0.3265797 0.351087,-0.5715146 0.614403,-0.7348044 0.175544,-0.1632899 0.482746,-0.3265798 0.965491,-0.3265798 0.570518,0 0.702176,-0.081645 2.150412,-0.081645 v 0 z m 0,3.0208628 c -1.492123,0 -2.72093,2.2860591 -2.72093,5.0619861 0,2.775928 1.228807,5.061986 2.72093,5.061986 1.492122,0 2.720929,-2.286058 2.720929,-5.061986 0,-2.775927 -1.228807,-5.0619861 -2.720929,-5.0619861 z m 0,8.2461391 c -0.965492,0 -1.755439,-1.46961 -1.755439,-3.265798 0,-1.796188 0.789947,-3.265797 1.755439,-3.265797 0.965491,0 1.755438,1.469609 1.755438,3.265797 0,1.796188 -0.789947,3.265798 -1.755438,3.265798 z M 21.70547,8.5934161 c 0,0.6531595 -0.263315,1.1430291 -0.614403,1.1430291 -0.351088,0 -0.614403,-0.4898696 -0.614403,-1.1430291 0,-0.6531596 0.263315,-1.1430292 0.614403,-1.1430292 0.351088,0 0.614403,0.4898696 0.614403,1.1430292 z"
     id="path850"
     style="stroke-width:0.598587" />
  <ellipse
     cx="163.5"
     cy="117.5"
     rx="124.5"
     ry="53.5"
     fill="rgb(255, 255, 255)"
     id="ellipse852" />
  <metadata
     id="metadata1034">
    <rdf:RDF>
      <cc:Work
         rdf:about="">
        <dc:title>Instagram icon</dc:title>
      </cc:Work>
    </rdf:RDF>
  </metadata>
</svg>
